<mxfile host="app.diagrams.net" modified="2021-08-30T22:12:56.851Z" agent="5.0 (Windows NT 10.0; Win64; x64) AppleWebKit/537.36 (KHTML, like Gecko) Chrome/92.0.4515.159 Safari/537.36" etag="eYNn_RnPNBmCilfB2Bry" version="14.9.8" type="github">
  <diagram id="GUBr7ETDrWXFhSVDyBDo" name="Page-1">
    <mxGraphModel dx="1865" dy="547" grid="1" gridSize="10" guides="1" tooltips="1" connect="1" arrows="1" fold="1" page="1" pageScale="1" pageWidth="827" pageHeight="1169" math="0" shadow="0">
      <root>
        <mxCell id="0" />
        <mxCell id="1" parent="0" />
        <mxCell id="2Rz1dntQvuLF9NrTh89v-7" style="rounded=0;orthogonalLoop=1;jettySize=auto;html=1;exitX=0.5;exitY=0;exitDx=0;exitDy=0;entryX=1;entryY=0.5;entryDx=0;entryDy=0;endArrow=none;endFill=0;" edge="1" parent="1" source="2Rz1dntQvuLF9NrTh89v-1" target="2Rz1dntQvuLF9NrTh89v-2">
          <mxGeometry relative="1" as="geometry" />
        </mxCell>
        <mxCell id="2Rz1dntQvuLF9NrTh89v-8" style="edgeStyle=none;rounded=0;orthogonalLoop=1;jettySize=auto;html=1;exitX=0;exitY=0.5;exitDx=0;exitDy=0;endArrow=none;endFill=0;" edge="1" parent="1" source="2Rz1dntQvuLF9NrTh89v-1" target="2Rz1dntQvuLF9NrTh89v-3">
          <mxGeometry relative="1" as="geometry" />
        </mxCell>
        <mxCell id="2Rz1dntQvuLF9NrTh89v-9" style="edgeStyle=none;rounded=0;orthogonalLoop=1;jettySize=auto;html=1;exitX=0.5;exitY=1;exitDx=0;exitDy=0;entryX=1;entryY=0.5;entryDx=0;entryDy=0;endArrow=none;endFill=0;" edge="1" parent="1" source="2Rz1dntQvuLF9NrTh89v-1" target="2Rz1dntQvuLF9NrTh89v-4">
          <mxGeometry relative="1" as="geometry" />
        </mxCell>
        <mxCell id="2Rz1dntQvuLF9NrTh89v-1" value="Tema" style="whiteSpace=wrap;html=1;align=center;" vertex="1" parent="1">
          <mxGeometry x="80" y="150" width="100" height="40" as="geometry" />
        </mxCell>
        <mxCell id="2Rz1dntQvuLF9NrTh89v-2" value="id_tema" style="ellipse;whiteSpace=wrap;html=1;align=center;fontStyle=4;" vertex="1" parent="1">
          <mxGeometry x="-30" y="80" width="100" height="40" as="geometry" />
        </mxCell>
        <mxCell id="2Rz1dntQvuLF9NrTh89v-3" value="fecha" style="ellipse;whiteSpace=wrap;html=1;align=center;" vertex="1" parent="1">
          <mxGeometry x="-50" y="150" width="100" height="40" as="geometry" />
        </mxCell>
        <mxCell id="2Rz1dntQvuLF9NrTh89v-4" value="usuario_creador" style="ellipse;whiteSpace=wrap;html=1;align=center;" vertex="1" parent="1">
          <mxGeometry x="-30" y="220" width="100" height="40" as="geometry" />
        </mxCell>
        <mxCell id="2Rz1dntQvuLF9NrTh89v-18" style="edgeStyle=none;rounded=0;orthogonalLoop=1;jettySize=auto;html=1;endArrow=none;endFill=0;" edge="1" parent="1" source="2Rz1dntQvuLF9NrTh89v-10" target="2Rz1dntQvuLF9NrTh89v-17">
          <mxGeometry relative="1" as="geometry" />
        </mxCell>
        <mxCell id="2Rz1dntQvuLF9NrTh89v-27" style="edgeStyle=none;rounded=0;orthogonalLoop=1;jettySize=auto;html=1;exitX=0.5;exitY=1;exitDx=0;exitDy=0;entryX=0.5;entryY=0;entryDx=0;entryDy=0;endArrow=none;endFill=0;" edge="1" parent="1" source="2Rz1dntQvuLF9NrTh89v-10" target="2Rz1dntQvuLF9NrTh89v-20">
          <mxGeometry relative="1" as="geometry" />
        </mxCell>
        <mxCell id="2Rz1dntQvuLF9NrTh89v-10" value="Usuario" style="whiteSpace=wrap;html=1;align=center;" vertex="1" parent="1">
          <mxGeometry x="400" y="150" width="100" height="40" as="geometry" />
        </mxCell>
        <mxCell id="2Rz1dntQvuLF9NrTh89v-14" style="edgeStyle=none;rounded=0;orthogonalLoop=1;jettySize=auto;html=1;exitX=0;exitY=0.5;exitDx=0;exitDy=0;entryX=0.5;entryY=0;entryDx=0;entryDy=0;endArrow=none;endFill=0;" edge="1" parent="1" source="2Rz1dntQvuLF9NrTh89v-11" target="2Rz1dntQvuLF9NrTh89v-10">
          <mxGeometry relative="1" as="geometry" />
        </mxCell>
        <mxCell id="2Rz1dntQvuLF9NrTh89v-11" value="id_usuario" style="ellipse;whiteSpace=wrap;html=1;align=center;fontStyle=4;" vertex="1" parent="1">
          <mxGeometry x="500" y="80" width="100" height="40" as="geometry" />
        </mxCell>
        <mxCell id="2Rz1dntQvuLF9NrTh89v-15" style="edgeStyle=none;rounded=0;orthogonalLoop=1;jettySize=auto;html=1;exitX=0;exitY=0.5;exitDx=0;exitDy=0;entryX=1;entryY=0.5;entryDx=0;entryDy=0;endArrow=none;endFill=0;" edge="1" parent="1" source="2Rz1dntQvuLF9NrTh89v-12" target="2Rz1dntQvuLF9NrTh89v-10">
          <mxGeometry relative="1" as="geometry" />
        </mxCell>
        <mxCell id="2Rz1dntQvuLF9NrTh89v-12" value="tipo" style="ellipse;whiteSpace=wrap;html=1;align=center;" vertex="1" parent="1">
          <mxGeometry x="550" y="150" width="100" height="40" as="geometry" />
        </mxCell>
        <mxCell id="2Rz1dntQvuLF9NrTh89v-16" style="edgeStyle=none;rounded=0;orthogonalLoop=1;jettySize=auto;html=1;exitX=0;exitY=0.5;exitDx=0;exitDy=0;entryX=0.5;entryY=1;entryDx=0;entryDy=0;endArrow=none;endFill=0;" edge="1" parent="1" source="2Rz1dntQvuLF9NrTh89v-13" target="2Rz1dntQvuLF9NrTh89v-10">
          <mxGeometry relative="1" as="geometry" />
        </mxCell>
        <mxCell id="2Rz1dntQvuLF9NrTh89v-13" value="nombre" style="ellipse;whiteSpace=wrap;html=1;align=center;" vertex="1" parent="1">
          <mxGeometry x="500" y="210" width="100" height="40" as="geometry" />
        </mxCell>
        <mxCell id="2Rz1dntQvuLF9NrTh89v-19" style="edgeStyle=none;rounded=0;orthogonalLoop=1;jettySize=auto;html=1;endArrow=none;endFill=0;" edge="1" parent="1" source="2Rz1dntQvuLF9NrTh89v-17" target="2Rz1dntQvuLF9NrTh89v-1">
          <mxGeometry relative="1" as="geometry" />
        </mxCell>
        <mxCell id="2Rz1dntQvuLF9NrTh89v-17" value="selecciona" style="shape=rhombus;perimeter=rhombusPerimeter;whiteSpace=wrap;html=1;align=center;" vertex="1" parent="1">
          <mxGeometry x="240" y="140" width="120" height="60" as="geometry" />
        </mxCell>
        <mxCell id="2Rz1dntQvuLF9NrTh89v-24" style="edgeStyle=none;rounded=0;orthogonalLoop=1;jettySize=auto;html=1;exitX=0;exitY=0.5;exitDx=0;exitDy=0;entryX=1;entryY=0.5;entryDx=0;entryDy=0;endArrow=none;endFill=0;" edge="1" parent="1" source="2Rz1dntQvuLF9NrTh89v-20" target="2Rz1dntQvuLF9NrTh89v-21">
          <mxGeometry relative="1" as="geometry" />
        </mxCell>
        <mxCell id="2Rz1dntQvuLF9NrTh89v-25" style="edgeStyle=none;rounded=0;orthogonalLoop=1;jettySize=auto;html=1;exitX=0.5;exitY=1;exitDx=0;exitDy=0;entryX=0.394;entryY=0.015;entryDx=0;entryDy=0;entryPerimeter=0;endArrow=none;endFill=0;" edge="1" parent="1" source="2Rz1dntQvuLF9NrTh89v-20" target="2Rz1dntQvuLF9NrTh89v-23">
          <mxGeometry relative="1" as="geometry" />
        </mxCell>
        <mxCell id="2Rz1dntQvuLF9NrTh89v-30" style="edgeStyle=none;rounded=0;orthogonalLoop=1;jettySize=auto;html=1;exitX=1;exitY=0.5;exitDx=0;exitDy=0;entryX=0;entryY=0.5;entryDx=0;entryDy=0;endArrow=none;endFill=0;" edge="1" parent="1" source="2Rz1dntQvuLF9NrTh89v-20" target="2Rz1dntQvuLF9NrTh89v-29">
          <mxGeometry relative="1" as="geometry" />
        </mxCell>
        <mxCell id="2Rz1dntQvuLF9NrTh89v-20" value="Opinion" style="whiteSpace=wrap;html=1;align=center;" vertex="1" parent="1">
          <mxGeometry x="400" y="350" width="100" height="40" as="geometry" />
        </mxCell>
        <mxCell id="2Rz1dntQvuLF9NrTh89v-21" value="estado" style="ellipse;whiteSpace=wrap;html=1;align=center;" vertex="1" parent="1">
          <mxGeometry x="270" y="350" width="100" height="40" as="geometry" />
        </mxCell>
        <mxCell id="2Rz1dntQvuLF9NrTh89v-23" value="id_opinion" style="ellipse;whiteSpace=wrap;html=1;align=center;fontStyle=4;" vertex="1" parent="1">
          <mxGeometry x="414" y="430" width="100" height="40" as="geometry" />
        </mxCell>
        <mxCell id="2Rz1dntQvuLF9NrTh89v-28" value="tiene" style="shape=rhombus;perimeter=rhombusPerimeter;whiteSpace=wrap;html=1;align=center;" vertex="1" parent="1">
          <mxGeometry x="390" y="250" width="120" height="60" as="geometry" />
        </mxCell>
        <mxCell id="2Rz1dntQvuLF9NrTh89v-29" value="contenido" style="ellipse;whiteSpace=wrap;html=1;align=center;" vertex="1" parent="1">
          <mxGeometry x="550" y="350" width="100" height="40" as="geometry" />
        </mxCell>
      </root>
    </mxGraphModel>
  </diagram>
</mxfile>
